<?xml version="1.0" encoding="UTF-8" standalone="no"?>
<!-- Created with Inkscape (http://www.inkscape.org/) -->

<svg
   xmlns:dc="http://purl.org/dc/elements/1.1/"
   xmlns:cc="http://creativecommons.org/ns#"
   xmlns:rdf="http://www.w3.org/1999/02/22-rdf-syntax-ns#"
   xmlns:svg="http://www.w3.org/2000/svg"
   xmlns="http://www.w3.org/2000/svg"
   xmlns:sodipodi="http://sodipodi.sourceforge.net/DTD/sodipodi-0.dtd"
   xmlns:inkscape="http://www.inkscape.org/namespaces/inkscape"
   version="1.1"
   id="svg869"
   width="22"
   height="22"
   viewBox="0 0 22 22"
   sodipodi:docname="gotify-indicator-paused.svg"
   inkscape:version="0.92.3 (2405546, 2018-03-11)">
  <metadata
     id="metadata875">
    <rdf:RDF>
      <cc:Work
         rdf:about="">
        <dc:format>image/svg+xml</dc:format>
        <dc:type
           rdf:resource="http://purl.org/dc/dcmitype/StillImage" />
        <dc:title></dc:title>
      </cc:Work>
    </rdf:RDF>
  </metadata>
  <defs
     id="defs873" />
  <sodipodi:namedview
     pagecolor="#ffffff"
     bordercolor="#666666"
     borderopacity="1"
     objecttolerance="10"
     gridtolerance="10"
     guidetolerance="10"
     inkscape:pageopacity="0"
     inkscape:pageshadow="2"
     inkscape:window-width="1920"
     inkscape:window-height="1055"
     id="namedview871"
     showgrid="false"
     inkscape:zoom="19.22168"
     inkscape:cx="12.244107"
     inkscape:cy="8.661449"
     inkscape:window-x="0"
     inkscape:window-y="0"
     inkscape:window-maximized="1"
     inkscape:current-layer="svg869" />
  <g
     id="g989"
     transform="matrix(0.03773338,0,0,0.04065354,19.835617,5.5461235)"
     style="fill:#7c7c7c;fill-opacity:1">
    <path
       style="fill:#7c7c7c;fill-opacity:1;stroke-width:1.0666666"
       d="m -303.75686,379.49476 c -22.22292,-1.99269 -54.36721,-7.787 -71.51321,-12.89091 -16.35922,-4.86971 -34.3945,-14.41719 -47.44128,-25.11438 -3.2969,-2.70317 -3.79347,-2.81129 -6.93333,-1.50976 -11.75198,4.87145 -15.40831,5.74028 -24.18209,5.74624 -18.762,0.0127 -39.02011,-10.52743 -44.22692,-23.011 -1.45662,-3.49231 -1.47805,-4.45552 -0.1688,-7.58899 2.86008,-6.84512 10.62732,-7.14717 18.73167,-0.7284 5.91719,4.6865 10.83899,6.45411 17.89645,6.4273 6.34683,-0.0241 13.55065,-2.51484 16.06576,-5.55478 1.12272,-1.35699 0.98973,-2.60129 -0.74964,-7.01413 -3.90255,-9.90082 -5.72001,-21.97919 -5.15221,-34.24005 0.65136,-14.06519 3.021,-23.37636 8.86274,-34.82488 l 4.5455,-8.90817 -9.58445,-7.65342 c -5.69467,-4.54733 -10.29545,-9.14438 -11.33635,-11.32718 -1.70811,-3.58196 -1.67533,-3.82 1.31198,-9.5257 4.40759,-8.41836 8.37318,-12.35689 12.01795,-11.93591 2.32612,0.26866 4.72262,2.6598 11.29963,11.27432 4.59106,6.01333 8.95828,10.93333 9.70494,10.93333 1.47017,0 23.74831,-22.45738 31.74462,-32 7.15985,-8.54442 14.44233,-20.26485 17.72028,-28.519 2.64692,-6.6652 2.86453,-8.3916 2.85886,-22.681 -0.005,-14.33798 -0.32962,-16.8678 -4.43885,-34.666668 -7.40649,-32.08068 -8.16012,-37.4848 -8.18144,-58.66666 -0.0221,-21.88987 1.68297,-31.7156499 8.42947,-48.577973 2.10663,-5.26536 3.5726,-9.99026 3.25769,-10.49978 -0.31489,-0.50952 -3.34071,-2.02547 -6.72404,-3.36878 -11.41452,-4.532 -18.49817,-8.51722 -19.38095,-10.90359 -1.11691,-3.01933 0.27968,-7.9838 4.9507,-17.59812 5.0069,-10.30567 9.35715,-14.11843 16.10874,-14.11843 6.38677,0 16.29105,3.30051 24.2052,8.06617 3.34946,2.01694 6.56125,3.66717 7.1373,3.66717 0.57607,0 3.48656,-2.19304 6.46779,-4.87341 11.34545,-10.20054 40.34586,-27.10754 51.14751,-29.81858 3.7181,-0.93319 5.72856,-3.4213 6.5718,-8.133139 2.09353,-11.69836 12.48411,-14.07697 34.06514,-7.79818 8.37888,2.43776 9.61725,2.50979 32.70859,1.90243 33.05758,-0.86949 53.95869,1.59953 79.46667,9.387289 27.1572,8.29128 50.277983,23.74606 68.083093,45.50921 l 6.07446,7.42479 8.787887,0.47992 c 6.87667,0.37554 10.13769,1.14587 14.99432,3.54199 7.57666,3.73812 17.09724,13.6096 21.41371,22.20297 1.96059,3.90321 4.22891,6.73591 6.21715,7.76408 6.1428304,3.1765801 9.3403204,16.1430031 5.3692504,21.773283 -1.48984,2.11235 -1.7974,4.44218 -1.54496,11.70401 0.34164,9.82808 -1.59184,19.30233 -5.1824104,25.39431 -2.64501,4.48769 -2.61265,5.80043 0.20481,8.30704 2.8496104,2.53522 6.1948504,9.6756 6.2259304,13.28922 0.0471,5.48149 -5.1892004,13.6508 -11.6871004,18.23324 l -6.13946,4.32966 -0.56625,9.756598 c -0.31144,5.36613 -0.4039,9.92789 -0.20547,10.13726 0.19844,0.20935 5.63681,-0.39065 12.08527,-1.33334 14.4474704,-2.11206 23.98516,-2.22416 25.58152,-0.30065 0.64515,0.77735 1.75712,3.94401 2.47109,7.03705 1.02271,4.43061 2.10276,6.224 5.09096,8.45332 5.52157,4.11931 6.3879,5.53242 6.42561,10.48111 0.0249,3.25888 -0.70146,5.32545 -2.7109,7.71354 l -2.74482,3.26203 2.73348,19.48647 c 4.23793,30.21134 6.16686,51.09837 6.33517,68.59919 0.19499,20.27375 0.16524,20.33025 -12.80454,24.32291 -28.37493,8.73502 -99.354147,29.96734 -114.906617,34.37251 -17.367853,4.91938 -22.001183,7.17427 -22.001183,10.70726 0,0.72223 2.39567,2.10887 5.3237,3.0814 10.65322,3.53843 14.586853,12.51391 13.631553,31.10345 -0.672693,13.09024 -3.571803,21.91556 -8.792763,26.76642 -4.13982,3.84635 -6.41294,4.26623 -9.89455,1.82761 -3.53218,-2.47403 -4.88712,-9.17775 -4.11533,-20.36108 0.59268,-8.58806 0.43287,-10.02845 -1.35802,-12.2401 -1.73597,-2.14383 -3.19025,-2.56522 -10.04818,-2.91153 l -8.01844,-0.40492 -4.63065,4.24922 c -22.90155,21.01511 -57.08436,35.9076 -94.83594,41.31737 -14.40546,2.0643 -47.332,2.89635 -62.1248,1.5699 z m 65.39675,-5.1363 c 40.4388,-6.87944 68.94907,-20.38083 93.65307,-44.35056 11.41189,-11.0727 23.47043,-25.72501 22.20914,-26.9863 -0.39938,-0.39937 -10.09887,1.56573 -21.55442,4.3669 -24.2341,5.92584 -31.58615,6.95928 -34.19734,4.80696 -6.03029,-4.97059 -24.47115,-61.2624 -35.07894,-107.0805 -1.62988,-7.04 -3.42753,-13.4 -3.99475,-14.13334 -0.56722,-0.73333 -2.08541,-1.33333 -3.37376,-1.33333 -5.09565,0 -13.68343,-3.46494 -17.7956,-7.18004 -4.36599,-3.9444 -6.93625,-7.9803 -8.45521,-13.2766 -1.58904,-5.54063 0.95451,-4.15461 4.46599,2.43359 3.85856,7.2394 8.32716,10.85031 16.4545,13.29629 14.60882,4.3966 38.86732,-2.28422 38.86732,-10.70412 0,-4.80865 -2.44617,-5.37353 -11.48865,-2.653 -9.97526,3.00117 -17.49884,3.17448 -22.99123,0.52965 -4.42954,-2.13305 -6.74592,-4.99315 -7.29974,-9.01329 -0.52199,-3.78902 1.81118,-3.88571 3.36297,-0.13935 1.47399,3.55851 4.28332,4.39291 4.28332,1.27219 0,-3.2023 3.16204,-5.17244 13.87614,-8.64565 19.77535,-6.41064 90.192,-23.32356 147.72386,-35.48084 l 11.73333,-2.47942 v -8.51304 -8.51304 l -6.71062,-0.740168 c -11.561207,-1.27518 -19.259307,-8.42181 -20.199737,-18.75271 -0.73935,-8.1218 5.18841,-16.77327 15.413247,-22.49537 1.14786,-0.64238 1.83783,-2.711 2.03808,-6.11038 0.47331,-8.03454 6.92656,-14.68202 15.5994,-16.06885 2.29667,-0.36726 4.44719,-1.37505 4.77893,-2.23954 0.9378,-2.44389 -3.68473,-24.14397 -7.70156,-36.1543799 -4.4209,-13.2185831 -10.55618,-25.6934431 -18.533317,-37.6838631 -6.6545,-10.00235 -23.00083,-27.18704 -32.25877,-33.91325 -21.476143,-15.60311 -49.234803,-25.38353 -82.250273,-28.979869 -13.35673,-1.45493 -42.82138,-1.44825 -56.08408,0.0127 -40.5694,4.468959 -80.69388,20.625899 -104.59952,42.119119 -4.52772,4.07081 -5.37188,5.37952 -4.83915,7.50211 0.35493,1.41411 0.33915,2.57111 -0.035,2.57111 -0.37418,0 -3.18622,-1.99441 -6.24897,-4.43202 -7.86285,-6.25798 -18.03745,-10.66482 -26.14107,-11.32228 -6.00391,-0.48711 -6.992,-0.27724 -9.44025,2.00512 -4.83564,4.50799 -12.65698,21.777 -11.37552,25.11642 0.86783,2.26152 12.6217,7.63905 28.88485,13.21515 7.17015,2.45843 13.03667,4.8931 13.03667,5.4104 0,1.41061 -3.44186,1.13692 -8.60316,-0.68409 -5.74457,-2.02681 -6.18585,-1.63877 -10.53293,9.26206 -6.48224,16.2550431 -7.97536,24.959033 -8.02184,46.762573 -0.0465,21.823 0.39193,25.09429 7.6489,57.06667 11.54208,50.851558 6.91181,66.190208 -32.42673,107.419528 -27.14423,28.44891 -35.15146,40.3735 -39.9363,59.47432 -2.93804,11.72851 -2.42698,31.81754 1.08998,42.84502 2.75558,8.64017 4.35645,10.30275 7.05216,7.32403 1.9735,-2.1807 4.79659,-2.87764 4.79659,-1.18414 0,0.51998 -2.28,3.3739 -5.06667,6.34205 -11.93997,12.71753 -28.66765,14.05352 -42.77377,3.4162 -3.13891,-2.36702 -6.82462,-4.30368 -8.19048,-4.30368 -2.80445,0 -5.83575,2.56038 -5.83575,4.92916 0,5.10453 8.62993,14.03552 17.47199,18.08152 20.6483,9.44837 42.0909,6.7929 53.95144,-6.6814 5.01632,-5.69884 6.96413,-5.27858 3.49249,0.75353 -1.31042,2.27691 -2.38259,4.77421 -2.38259,5.54955 0,3.42688 19.43104,16.20274 34.25588,22.52316 15.96468,6.80638 48.27715,14.06682 74.01079,16.62983 6.45333,0.64275 13.41333,1.36101 15.46667,1.59615 9.95164,1.13963 49.05746,-0.40701 60.79999,-2.40466 z m 58.46823,-263.65197 c -19.48223,-3.09794 -34.25295,-9.78403 -44.63004,-20.202178 -7.99716,-8.02879 -12.68703,-16.26276 -16.15324,-28.36014 -3.34872,-11.68732 -3.35302,-33.29524 -0.01,-45.60171 3.60782,-13.2775699 10.04872,-24.5868629 19.33502,-33.949503 6.77148,-6.82714 9.84135,-8.98564 19.25578,-13.53916 14.73622,-7.12753 21.27397,-8.77865 37.58799,-9.4929 20.23082,-0.88572 32.55984,2.37288 45.82783,12.11248 12.05506,8.84923 23.898743,27.73455315 28.665333,45.708243 2.97324,11.2114 3.28452,30.99288 0.64624,41.06667 -6.63675,25.34113 -25.428853,43.315888 -52.460733,50.178988 -9.77547,2.48188 -28.94714,3.5291 -38.0651,2.07921 z m 40.16976,-5.83181 c 12.36237,-3.64445 20.7974,-8.197308 28.70381,-15.493058 16.716083,-15.425 23.819583,-38.67925 19.454803,-63.68796 -5.6898,-32.6007129 -25.903453,-56.630083 -52.396603,-62.287503 -3.52,-0.75167 -11.2,-1.33632 -17.06666,-1.29921 -31.24351,0.1976 -59.33981,16.01233 -70.72253,39.8080131 -6.60417,13.8060799 -8.08867,20.6120799 -8.14301,37.3333299 -0.0341,10.51616 0.45866,16.27 1.82727,21.33333 6.80758,25.18544 25.06715,40.942328 53.73284,46.368098 12.79442,2.42171 32.45948,1.50698 44.61008,-2.07504 z m -6.37132,-49.996628 c -4.98895,-2.29432 -7.19479,-5.49174 -7.74597,-11.22793 -0.66319,-6.90198 1.18589,-12.10534 5.71488,-16.08185 3.0874,-2.71076 4.60634,-3.25331 9.10821,-3.25331 4.69356,0 5.86646,0.46358 8.93397,3.53109 6.59619,6.59618 7.37294,18.07655 1.65598,24.47493 -2.4365,2.72693 -3.8469,3.31818 -8.68788,3.64205 -3.46005,0.23149 -7.06332,-0.2039 -8.97919,-1.08498 z m 13.79048,-13.03928 c 1.98363,-1.98364 2.20848,-6.96486 0.39619,-8.77715 -0.704,-0.704 -2.528,-1.28 -4.05334,-1.28 -3.48404,0 -5.33333,1.80168 -5.33333,5.19602 0,5.36771 5.50653,8.34507 8.99048,4.86113 z m -250.53,-82.827823 c -3.77086,-5.38365 -0.71726,-11.49599 5.74316,-11.49599 6.90051,0 26.72283,11.02909 24.25595,13.49597 -0.37559,0.37558 -2.50337,-0.52186 -4.72842,-1.99432 -10.27359,-6.79874 -18.5913,-9.9107 -21.84098,-8.17152 -1.79388,0.96005 -2,1.81956 -1.3984,5.83128 0.79336,5.29053 0.3755,5.77078 -2.03131,2.33458 z m 272.03133,404.793161 c 7.85518,-7.85518 10.32831,-37.27418 3.87693,-46.11779 -2.04156,-2.79858 -7.24807,-5.80865 -12.07693,-6.98211 -2.4728,-0.6009 -3.54681,0.25877 -9.86667,7.89772 -3.90049,4.71461 -7.09181,8.807 -7.09181,9.0942 0,0.28719 1.8,0.82022 4,1.18452 11.89089,1.969 13.06667,3.76943 13.06667,20.00844 0,6.94803 0.49689,13.56122 1.10419,14.69599 1.36976,2.55942 4.54761,2.65903 6.98762,0.21903 z m -38.69403,-58.3756 c 21.47818,-5.13125 58.555813,-15.53045 105.23662,-29.51578 56.56397,-16.94629 66.16783,-20.06937 66.14688,-21.51031 -0.0261,-1.7992 -66.96749,-47.10177 -73.0474,-49.43486 -0.72155,-0.27688 -4.60631,3.48301 -8.63279,8.35532 -9.544087,11.54896 -11.907047,13.66197 -15.256837,13.64303 -1.52767,-0.009 -8.46262,-1.92864 -15.41099,-4.26667 -6.94837,-2.33802 -12.806903,-4.25095 -13.018943,-4.25095 -1.80533,0 -67.94477,89.3769 -67.12318,90.70626 0.73031,1.18166 0.0942,1.29395 21.10664,-3.72604 z m -6.4853,-23.61517 c 10.71813,-14.42921 25.87938,-34.61362 33.69166,-44.85424 7.81228,-10.24061 14.03847,-19.11629 13.836,-19.72373 -0.20249,-0.60744 -5.63435,-3.25368 -12.07081,-5.88053 -6.43647,-2.62686 -24.1128,-10.0685 -39.28073,-16.537 l -27.57807,-11.7609 -6.02193,2.67766 c -3.31207,1.47272 -9.02193,3.25822 -12.6886,3.96779 -5.36016,1.03729 -6.66667,1.68367 -6.66667,3.29826 0,2.80394 9.78819,40.87012 15.45755,60.11431 9.35523,31.75559 18.13391,54.93333 20.80623,54.93333 0.56532,0 9.79724,-11.80573 20.51537,-26.23495 z M 27.50239,246.0978 c 2.09157,-11.93854 -4.72398,-76.26296 -12.08422,-114.04951 -2.76645,-14.20258 -2.99179,-14.94483 -4.51683,-14.8783 -0.69379,0.0303 -7.9789196,9.71515 -16.1891696,21.522 -8.2102504,11.80684 -21.5779804,30.61029 -29.7060804,41.78545 l -14.77837,20.31848 2.50609,1.93721 c 1.37835,1.06547 17.73083,12.01841 36.33886,24.33988 18.6080304,12.32148 34.13202,22.88685 34.49775,23.47862 1.3395,2.16734 3.12663,0.14303 3.93197,-4.45383 z m -457.95237,-24.86284 c 3.46336,-4.36535 4.04771,-6.45907 2.13299,-7.64243 -0.63629,-0.39324 -4.4999,-5.22157 -8.58581,-10.72962 -4.08592,-5.50804 -8.10663,-10.01462 -8.9349,-10.01462 -2.07233,0 -5.03355,3.37899 -8.4299,9.6192 -2.37542,4.36443 -2.65486,5.64929 -1.64074,7.54419 2.54107,4.74801 18.73797,17.30968 20.80904,16.13862 0.7477,-0.42277 2.83989,-2.63468 4.64932,-4.91534 z m 360.820123,-1.45334 c 5.23499,-5.46752 17.329577,-21.16528 33.706347,-43.74798 17.46217,-24.0794 43.9634004,-61.80772 43.9634004,-62.58822 0,-5.65855 -169.7655604,30.21087 -214.9333304,45.41282 -11.76264,3.95891 -13.07878,5.59058 -6.93333,8.59546 4.67233,2.28459 8.09169,2.36545 13.86666,0.32792 11.07581,-3.90777 17.91998,-0.34166 16.57375,8.63565 l -0.66012,4.40206 26.44319,11.29716 c 43.38733,18.53611 77.520653,31.63511 82.493373,31.65765 0.90761,0.004 3.37363,-1.79252 5.48006,-3.99252 z M 23.8402,137.61977 c 0.37817,-2.56318 -1.48667,-6.63815 -3.03783,-6.63815 -1.15944,0 -1.32966,3.56942 -0.34543,7.24362 0.78653,2.93618 2.91699,2.55491 3.38326,-0.60547 z m -60.81695,-30.00145 c 0.17418,-4.34316 -0.11639,-8.329728 -0.64571,-8.859048 -0.52933,-0.52933 -2.17362,-0.6584 -3.65401,-0.28685 -2.22347,0.55805 -2.77694,1.44955 -3.18223,5.125708 -0.26983,2.44759 -0.27246,6.27642 -0.005,8.50853 0.45646,3.82129 0.68007,4.03938 3.82792,3.73333 l 3.34234,-0.32503 z m 7.69624,4.68106 c 1.78928,-2.15595 2.77529,-15.987108 1.20872,-16.955298 -0.64765,-0.40028 -2.14748,-0.2087 -3.33293,0.42575 -1.88578,1.00922 -2.15539,2.21624 -2.15539,9.649318 0,6.5051 0.3443,8.49581 1.4694,8.49581 0.80816,0 2.07275,-0.72701 2.8102,-1.61558 z m -10.1037,-18.168028 c 8.27966,-2.14924 16.7315,-6.04964 21.78915,-10.05537 8.5124704,-6.742 9.8739004,-17.17804 3.14644,-24.11901 -4.15969,-4.29171 -6.03345,-4.58786 -6.91079,-1.09223 -0.35198,1.40238 -2.04945,3.90016 -3.77216,5.55062 -2.62942,2.51914 -4.2486,3.07194 -10.08691,3.44369 -6.17499,0.3932 -7.73989,0.0563 -13.95828,-3.00501 -7.86665,-3.87274 -9.02741,-3.71966 -15.608337,2.05847 -5.13475,4.50838 -7.54722,10.73043 -6.15588,15.87677 3.22992,11.94703 14.131647,15.8653 31.556767,11.34207 z m 11.15744,-34.21018 c 3.62161,-3.51619 3.60205,-10.97201 -0.0389,-14.84768 -5.66242,-6.02739 -16.38951,-5.69359 -21.74983,0.67679 -4.51998,5.37169 -3.3539,11.21418 2.88708,14.46541 7.87185,4.10084 14.48064,3.99786 18.90172,-0.29452 z m 14.4,-15.87288 c 3.03867,-6.07735 3.19665,-7.04529 3.13349,-19.2 -0.18978,-36.530003 -19.00658,-65.600003 -42.4624,-65.600003 -2.52021,0 -4.87073,0.28853 -5.22337,0.64117 -0.35264,0.35264 1.03981,3.59264 3.09433,7.2 9.32926,16.38046 15.99413,34.7974731 19.61526,54.202793 2.9647,15.88763 2.57522,14.94844 7.32016,17.65137 2.97915,1.69706 4.7061,3.72938 6.13448,7.2192 1.2676,3.09699 2.56788,4.7536 3.58805,4.57134 0.88,-0.15723 3.04,-3.16587 4.8,-6.68587 z m -249.6,-144.121262 c 15.0788,-3.59096 14.4,-3.37541 14.4,-4.5725 0,-1.66273 -15.68311,-4.68607 -21.12589,-4.07259 -5.89613,0.66458 -9.80744,4.44674 -9.80744,9.483569 0,2.86869 0.29126,3.18549 2.4,2.61035 1.32,-0.36002 7.67999,-1.91199 14.13333,-3.448829 z"
       id="path883"
       inkscape:connector-curvature="0" />
    <path
       inkscape:connector-curvature="0"
       id="path911"
       d="m -37.5673,63.168188 c -2.814573,-0.247388 -5.234004,-0.933565 -8.272428,-2.346149 -2.02011,-0.939163 -3.270305,-1.757957 -4.404213,-2.884464 -1.272979,-1.26467 -2.03029,-2.63208 -2.353055,-4.248705 -0.163588,-0.819359 -0.152796,-2.043417 0.0255,-2.892291 0.453354,-2.158443 1.68864,-4.261102 3.56037,-6.060331 2.011082,-1.933184 4.712843,-3.255849 7.639804,-3.740119 1.345179,-0.222562 3.249974,-0.269493 4.470961,-0.110159 2.694031,0.351561 5.032566,1.273061 6.990507,2.754609 2.359566,1.785453 3.64525,3.907739 4.186115,6.910041 0.116879,0.648788 0.129407,0.839802 0.132843,2.025518 0.004,1.383227 -0.02913,1.747644 -0.250924,2.759066 -0.172587,0.787043 -0.461008,1.604192 -0.830916,2.354132 -0.639777,1.297066 -1.427645,2.216803 -2.750499,3.210863 -1.511516,1.13583 -3.265267,1.856209 -5.243463,2.153832 -0.628034,0.09449 -2.352307,0.16235 -2.900602,0.114157 z"
       style="opacity:1;fill:#7c7c7c;fill-opacity:1;fill-rule:nonzero;stroke:none;stroke-width:0.07468782;stroke-linecap:round;stroke-miterlimit:4;stroke-dasharray:none;stroke-dashoffset:0;stroke-opacity:1" />
    <path
       inkscape:connector-curvature="0"
       id="path915"
       d=""
       style="opacity:1;fill:#7c7c7c;fill-opacity:1;fill-rule:nonzero;stroke:none;stroke-width:0.11203172;stroke-linecap:round;stroke-miterlimit:4;stroke-dasharray:none;stroke-dashoffset:0;stroke-opacity:1" />
    <path
       inkscape:connector-curvature="0"
       id="path917"
       d=""
       style="opacity:1;fill:#7c7c7c;fill-opacity:1;fill-rule:nonzero;stroke:none;stroke-width:0.11203172;stroke-linecap:round;stroke-miterlimit:4;stroke-dasharray:none;stroke-dashoffset:0;stroke-opacity:1" />
    <path
       inkscape:connector-curvature="0"
       id="path919"
       d="m -54.097591,95.861817 c -8.385959,-0.583741 -13.892904,-4.490705 -16.342304,-11.594232 -0.368493,-1.068669 -0.629189,-2.083407 -0.748134,-2.912051 -0.133523,-0.930201 -0.05496,-3.113547 0.148443,-4.125518 0.53865,-2.679855 1.954358,-5.507441 3.95412,-7.897545 1.845012,-2.205148 5.624373,-5.371956 7.591278,-6.360897 0.990571,-0.498049 1.756018,-0.689102 2.760365,-0.688978 1.77062,2.15e-4 3.152074,0.481993 7.746534,2.701561 5.275324,2.548491 6.913984,3.017712 10.535786,3.016861 1.576821,-3.7e-4 3.184694,-0.08195 5.137696,-0.260682 3.528459,-0.32291 5.193474,-0.844301 6.911165,-2.164198 0.71977,-0.55308 2.086944,-1.911771 2.742039,-2.725025 1.24213,-1.542015 1.946517,-2.77756 2.415696,-4.2373 0.208675,-0.649244 0.405343,-1.107079 0.586589,-1.365557 0.960994,-1.370485 2.496789,-0.828871 5.306018,1.871221 1.727961,1.660832 2.8389,3.121839 3.676258,4.834688 3.3330095,6.817799 0.798824,14.957972 -6.351897,20.403223 -7.383796,5.622736 -20.244126,10.425796 -30.513227,11.396042 -1.489229,0.140705 -4.303501,0.195602 -5.556425,0.108387 z"
       style="opacity:1;fill:#7c7c7c;fill-opacity:1;fill-rule:nonzero;stroke:none;stroke-width:0.11203172;stroke-linecap:round;stroke-miterlimit:4;stroke-dasharray:none;stroke-dashoffset:0;stroke-opacity:1" />
    <path
       inkscape:connector-curvature="0"
       id="path925"
       d=""
       style="opacity:1;fill:#7c7c7c;fill-opacity:1;fill-rule:nonzero;stroke:none;stroke-width:0.16804758;stroke-linecap:round;stroke-miterlimit:4;stroke-dasharray:none;stroke-dashoffset:0;stroke-opacity:1" />
    <path
       inkscape:connector-curvature="0"
       id="path927"
       d=""
       style="opacity:1;fill:#7c7c7c;fill-opacity:1;fill-rule:nonzero;stroke:none;stroke-width:0.16804758;stroke-linecap:round;stroke-miterlimit:4;stroke-dasharray:none;stroke-dashoffset:0;stroke-opacity:1" />
    <path
       inkscape:connector-curvature="0"
       id="path931"
       d="m -294.10562,376.51084 c -25.38133,-1.04503 -62.61667,-7.64519 -85.04755,-15.07512 -14.43256,-4.7806 -34.91204,-16.10628 -41.32886,-22.85592 l -2.29453,-2.41353 2.0835,-4.49704 c 1.14593,-2.47336 2.08351,-4.83915 2.08351,-5.2573 0,-1.71823 -2.38953,-0.55337 -5.52633,2.69397 -8.47363,8.77227 -16.18639,11.96443 -29.08155,12.03627 -14.55495,0.0811 -26.7651,-4.37581 -35.50045,-12.95824 -5.94827,-5.84413 -7.28207,-9.1669 -4.89689,-12.19917 0.93034,-1.18274 2.53414,-2.15043 3.56401,-2.15043 1.02987,0 4.86629,1.89046 8.52537,4.20102 9.17637,5.79451 13.38136,7.06281 21.86506,6.59491 9.91244,-0.54669 17.28394,-4.63527 24.27759,-13.46546 1.96918,-2.48629 2.40674,-3.59362 1.69947,-4.30088 -0.70726,-0.70726 -1.64004,-0.44416 -3.62299,1.0219 -3.60825,2.66769 -4.89472,1.7056 -7.32051,-5.47466 -4.35844,-12.90087 -4.40546,-34.11072 -0.10661,-48.08549 4.92044,-15.99543 11.96102,-25.97804 38.43026,-54.48906 7.13455,-7.68489 14.94428,-16.42127 17.35495,-19.41417 16.9258,-21.01374 22.34931,-37.03435 20.13799,-59.48608 -0.92602,-9.40195 -2.41396,-17.25469 -9.03234,-47.668959 -3.01353,-13.848493 -3.03123,-14.049759 -3.11779,-35.451968 -0.0976,-24.144327 0.51809,-29.2376098 5.14398,-42.5512504 3.66622,-10.5516116 6.08406,-15.7134766 7.6399,-16.3105116 0.67015,-0.257156 3.73929,0.144507 6.82033,0.892584 3.76876,0.915059 5.88065,1.081371 6.45378,0.50825 1.21678,-1.216785 0.17868,-1.723273 -15.59385,-7.608278 -15.18067,-5.664172 -24.94787,-10.224404 -25.54035,-11.924599 -1.10184,-3.161912 5.97591,-18.851611 10.82214,-23.990115 2.15357,-2.283458 3.32003,-2.837258 5.95489,-2.827225 8.73356,0.03326 20.1953,4.665348 30.27113,12.23363 2.77637,2.085429 5.34031,3.791689 5.69764,3.791689 0.35732,0 0.64967,-1.295798 0.64967,-2.879551 0,-2.467752 0.79014,-3.603568 5.52511,-7.942312 20.13737,-18.452246 55.07343,-33.519366 92.44803,-39.870714 13.42369,-2.28119 47.66594,-3.20166 63.81059,-1.7153 30.31115,2.790606 58.9823,12.014592 80.06878,25.759455 7.867652,5.128396 18.413591,14.81544 27.926569,25.652145 17.328121,19.739333 29.366731,46.4345157 34.481766,76.46208 1.54179,9.051005 1.468911,9.307213 -2.919115,10.261665 -1.16063,0.252451 -4.112749,1.388586 -6.560277,2.524745 -5.263106,2.443173 -8.967617,7.540744 -9.874403,13.587592 -0.830386,5.537437 -0.911529,5.662118 -5.937504,9.123648 -13.328994,9.180026 -15.390796,24.399648 -4.561208,33.669376 3.388331,2.900283 10.19797,5.606994 14.157879,5.627514 5.852082,0.0303 6.022758,0.28234 6.022758,8.89303 0,6.76467 -0.206432,7.9229 -1.477166,8.28809 -0.812441,0.23347 -10.593386,2.37606 -21.735433,4.76128 -51.988946,11.12951 -117.774346,27.10788 -135.618846,32.93996 -11.13745,3.64002 -14.00941,5.21813 -14.73139,8.09473 -0.67565,2.69202 -1.79102,2.52741 -3.52524,-0.52029 -0.79409,-1.39552 -2.14875,-2.52934 -3.02551,-2.53228 -1.33648,-0.004 -1.51353,0.45122 -1.11926,2.88082 1.61147,9.9303 13.30183,13.48033 29.90654,9.08175 8.91769,-2.36229 10.17509,-2.32957 11.37132,0.29585 1.33279,2.92517 -1.04476,6.02621 -6.85965,8.94703 -5.68144,2.85379 -12.07668,4.11205 -20.89998,4.11205 -11.77451,0 -19.97886,-3.88149 -24.76635,-11.71697 -3.52306,-5.76604 -5.92226,-8.61558 -6.79819,-8.07423 -2.00797,1.241 2.69601,11.23676 7.38575,15.69442 3.85922,3.66823 10.49379,7.12769 15.10223,7.87474 7.27163,1.17877 6.95019,0.92105 8.72057,6.99192 0.91261,3.12948 3.19449,11.95736 5.07085,19.61752 8.5089,34.73722 22.08806,77.10619 29.2285,91.19716 3.19576,6.30655 4.95101,7.12559 12.77626,5.96173 3.54723,-0.52759 13.086,-2.49002 21.19727,-4.36097 8.11125,-1.87094 14.89258,-3.25687 15.06961,-3.07985 0.62612,0.62613 -0.77671,10.72917 -1.48977,10.72917 -0.39812,0 -0.72385,0.69829 -0.72385,1.55175 0,1.80082 -16.43649,18.08186 -24.37503,24.14449 -2.9606,2.261 -8.99277,6.31184 -13.40481,9.00187 l -8.0219,4.89097 -4.0619,-2.05832 c -6.97294,-3.53346 -16.38745,-6.29926 -21.44207,-6.29926 -8.23761,0 -11.79873,3.08369 -17.80899,15.42133 -1.98335,4.07135 -3.7302,7.76414 -3.88191,8.20621 -0.93192,2.71568 -44.30752,6.18308 -66.1152,5.28519 z m 135.25101,-265.25639 c 17.20817,-1.33832 29.57545,-5.15231 41.09821,-12.674437 22.237895,-14.517057 32.838152,-38.252395 30.113955,-67.429069 -1.057549,-11.326575 -2.568064,-17.409997 -6.706246,-27.0086094 -9.265699,-21.4919706 -23.902099,-36.1205836 -42.098609,-42.0762096 -12.4296,-4.068147 -38.94218,-3.588766 -52.26649,0.945042 -8.69841,2.959773 -21.83197,9.749436 -27.16337,14.042665 -15.45946,12.449051 -25.20678,31.3644573 -27.20004,52.783676 -2.04475,21.972598 2.47908,41.06474 13.02871,54.985749 10.68361,14.097779 29.66702,23.733133 52.00586,26.396483 7.75104,0.92411 7.75191,0.92411 19.18802,0.0347 z m -221.5243,-154.860964 c -0.45911,-4.448361 -0.40407,-4.603952 1.82682,-5.163871 3.30822,-0.830308 8.27518,0.856371 16.71163,5.674938 8.49877,4.854154 12.10597,5.279385 7.49621,0.883683 -4.32315,-4.122403 -16.14453,-9.659362 -21.58614,-10.110623 -4.05412,-0.336198 -4.81899,-0.132945 -6.74406,1.79212 -2.63556,2.635559 -2.79134,5.863296 -0.46698,9.67567 2.30578,3.781899 3.33142,2.760195 2.76252,-2.751917 z"
       style="opacity:1;fill:#7c7c7c;fill-opacity:1;fill-rule:nonzero;stroke:none;stroke-width:1.27611136;stroke-linecap:round;stroke-miterlimit:4;stroke-dasharray:none;stroke-dashoffset:0;stroke-opacity:1" />
    <path
       sodipodi:nodetypes="ssccsccccssssccsssscscssccsccssccssscsssscccssscsssccccssscscccsccssssccsssssssssscsssscss"
       inkscape:connector-curvature="0"
       id="path933"
       d="m -309.72136,375.05874 c -22.61711,-2.49364 -51.11458,-8.1106 -66.68347,-13.14358 -17.2096,-5.56337 -43.57679,-20.30503 -45.14274,-25.23889 -0.25888,-0.81566 0.28793,-3.15507 1.21513,-5.1987 3.37011,-7.42804 2.01424,-7.60869 -5.91108,-0.78758 -7.00349,6.02772 -9.20011,7.2336 -16.16985,8.87678 -10.82356,2.55174 -25.05469,0.91829 -35.2828,-4.04976 -6.42343,-3.12003 -15.62873,-11.63261 -16.52948,-15.28561 -0.5034,-2.04159 -0.2202,-2.79952 1.64581,-4.4046 2.65355,-2.28249 2.99556,-2.19035 12.77344,3.44084 8.66561,4.99063 11.91593,5.83299 20.48252,5.30831 9.11049,-0.55799 14.25238,-3.04632 21.16024,-10.24015 2.86246,-2.98096 5.20448,-5.84456 5.20448,-6.36356 0,-1.64043 -2.38053,-1.93678 -4.36914,-0.54391 -2.97913,2.08667 -4.03514,1.63892 -5.85902,-2.48428 -3.16334,-7.15125 -4.36259,-16.54372 -3.87644,-30.36012 0.94221,-26.77789 6.11658,-36.28752 40.00924,-73.53042 27.72539,-30.46598 34.33653,-40.80705 37.89675,-59.27769 2.38896,-12.39404 1.16864,-23.80453 -6.13685,-57.381886 L -380.01108,62.71622 -380.402,41.437054 c -0.24974,-13.593762 -0.038,-23.931632 0.5864,-28.623252 1.03135,-7.7501889 5.53606,-22.3871586 8.98398,-29.191303 1.81907,-3.589761 2.36196,-4.047242 4.78117,-4.028951 1.501,0.01135 4.40389,0.406692 6.45086,0.878537 2.61433,0.602633 3.99365,0.58603 4.63546,-0.05579 1.29316,-1.293158 0.61016,-1.636079 -17.64227,-8.85771 -8.82079,-3.489973 -17.55717,-7.221675 -19.41418,-8.292672 -3.09941,-1.787534 -3.35992,-2.213047 -3.17578,-5.187331 0.23096,-3.730596 5.86702,-15.888674 9.20362,-19.853999 3.18319,-3.783012 5.46112,-4.443141 11.53282,-3.342132 7.5354,1.366428 14.72848,4.524083 23.10674,10.143511 4.09529,2.746782 7.73087,4.996284 8.07906,4.998893 0.34819,0.0026 0.63307,-1.025358 0.63307,-2.284372 0,-4.890562 17.76242,-19.17853 34.04922,-27.388938 21.89823,-11.039222 49.97251,-19.373315 73.57283,-21.840735 5.10677,-0.53391 19.16094,-0.98798 31.23149,-1.00903 18.31639,-0.0319 23.90111,0.26046 33.76378,1.76784 31.22929,4.773001 57.76163,15.067349 75.718603,29.378252 16.304461,12.993929 31.494895,31.627565 40.643368,49.855982 6.90368,13.7556268 14.801332,40.196566 15.143562,50.699861 l 0.173208,5.315837 -4.377229,1.499863 c -9.395886,3.219495 -13.556385,7.750484 -15.518745,16.900662 -0.802176,3.740403 -1.495381,4.66656 -6.496615,8.679849 -7.219836,5.79362 -10.325521,11.373118 -10.325521,18.550243 0,10.813365 7.674651,18.349567 20.538355,20.167841 2.729557,0.38582 5.110992,0.84965 5.292067,1.03073 0.810162,0.81016 1.339182,8.43546 0.82371,11.87287 -0.554182,3.69555 -0.666995,3.81255 -4.537202,4.70574 -2.182896,0.50378 -15.205864,3.37803 -28.93994,6.38721 -53.292741,11.67664 -110.926431,25.86991 -126.461231,31.14322 -9.57868,3.25151 -12.74586,4.99777 -13.3661,7.36961 -0.55513,2.12279 -1.2413,2.02149 -3.44067,-0.50802 -2.46816,-2.83863 -4.37914,-2.74647 -4.37512,0.21102 0.005,3.51147 2.88678,7.51983 6.92751,9.6349 4.60438,2.41011 14.44346,2.57809 23.14365,0.39512 7.93793,-1.99171 10.78174,-1.66811 11.12173,1.26552 0.64675,5.58049 -12.09057,11.076 -25.84108,11.14915 -14.4342,0.0767 -20.37246,-3.01294 -28.86048,-15.01625 -4.75472,-6.72388 -6.71265,-4.56832 -2.90808,3.20162 4.15823,8.49224 12.55604,14.73794 22.4275,16.68004 2.97025,0.58436 5.31614,1.54487 5.73813,2.34942 0.3926,0.74853 2.89463,9.90741 5.56007,20.35308 12.83488,50.29894 27.00218,92.55078 33.08186,98.6616 2.78457,2.79884 2.94891,2.84577 8.08874,2.30918 2.88553,-0.30124 12.86016,-2.95089 21.21483,-4.80125 8.35466,-1.85036 27.89384,-7.03246 28.47603,-7.03246 1.60852,0 -10.8385,13.61945 -12.64383,17.55404 -3.38809,7.38409 -27.33061,24.98426 -42.59669,33.82061 l -4.04334,2.34038 c -33.2081,15.26536 -30.78187,13.2143 -50.64716,16.70041 -12.00088,3.2315 -59.66519,5.03232 -78.43152,2.96324 z m 154.21345,-263.86827 c 40.48653,-4.51451 65.869747,-29.100762 68.347165,-66.201205 2.481182,-37.1570558 -19.760075,-74.065275 -50.365345,-83.578675 -7.05593,-2.193277 -30.88678,-2.705395 -41.33993,-0.888382 -14.39274,2.501809 -30.79756,10.49199 -40.80274,19.873505 -13.23396,12.4090399 -20.95908,28.1313548 -23.40623,47.636766 -3.61268,28.795608 5.87015,54.872514 24.88979,68.44465 17.37199,12.396401 38.65342,17.392161 62.67729,14.713341 z m -224.415,-154.711787 -0.28034,-4.33884 3.65942,-0.263076 c 3.06368,-0.220248 5.15488,0.50119 12.84538,4.431496 8.92709,4.56228 11.77236,5.51104 11.77236,3.925512 0,-3.204584 -17.21275,-12.047444 -24.4727,-12.572583 -4.46973,-0.323311 -4.93588,-0.17972 -6.70569,2.065593 -2.21473,2.809765 -2.01964,7.792602 0.41022,10.477566 2.15768,2.384213 3.08553,1.136866 2.77135,-3.725668 z"
       style="opacity:1;fill:#7c7c7c;fill-opacity:1;fill-rule:nonzero;stroke:none;stroke-width:1.27611136;stroke-linecap:round;stroke-miterlimit:4;stroke-dasharray:none;stroke-dashoffset:0;stroke-opacity:1" />
    <path
       inkscape:connector-curvature="0"
       id="path935"
       d="m -437.35724,225.40212 c -5.46214,-2.58402 -16.71573,-12.08586 -18.39803,-15.53416 -0.56227,-1.15251 -0.65142,-1.58712 -0.50869,-2.47971 0.34029,-2.12807 4.57994,-9.50673 7.06507,-12.29603 0.57188,-0.64187 1.53844,-1.40843 2.1479,-1.70347 1.06591,-0.51599 1.13351,-0.51979 1.77457,-0.0998 0.91289,0.59815 4.10621,4.24872 6.9121,7.90183 6.37842,8.30435 8.41798,10.87451 9.633,12.13905 1.54273,1.6056 1.64638,2.19501 0.71075,4.0414 -1.29509,2.55574 -6.55133,8.77548 -7.41566,8.77499 -0.19165,-1.1e-4 -1.05611,-0.33497 -1.92101,-0.74414 z"
       style="opacity:1;fill:#7c7c7c;fill-opacity:1;fill-rule:nonzero;stroke:none;stroke-width:0.37810707;stroke-linecap:round;stroke-miterlimit:4;stroke-dasharray:none;stroke-dashoffset:0;stroke-opacity:1" />
    <path
       inkscape:connector-curvature="0"
       id="path937"
       d=""
       style="opacity:1;fill:#7c7c7c;fill-opacity:1;fill-rule:nonzero;stroke:none;stroke-width:0.07468782;stroke-linecap:round;stroke-miterlimit:4;stroke-dasharray:none;stroke-dashoffset:0;stroke-opacity:1" />
    <path
       inkscape:connector-curvature="0"
       id="path939"
       d="m -447.5116,264.32922 c 0.0127,-0.0747 0.1013,-0.62181 0.19697,-1.21576 0.52153,-3.23765 1.53995,-7.20291 2.8884,-11.24611 4.4592,-13.37051 11.94934,-24.39911 29.54278,-43.49924 2.30094,-2.498 4.51355,-4.85603 7.88143,-8.39947 2.38702,-2.51145 4.05172,-4.27772 5.3318,-5.6571 1.65744,-1.78602 1.54563,-1.67824 1.74103,-1.67824 0.0951,0 0.16552,0.0198 0.15646,0.0439 -0.0209,0.0558 -2.8901,3.19491 -5.67079,6.20426 -3.49735,3.78494 -5.54463,6.00658 -6.64797,7.21413 -15.95499,17.46202 -23.32004,27.0179 -27.92912,36.23701 -1.61725,3.23484 -2.75529,6.01401 -4.03641,9.85723 -1.31938,3.95796 -2.07005,7.01963 -2.722,11.10194 l -0.18739,1.17332 h -0.2841 c -0.28257,0 -0.28398,-7.4e-4 -0.26109,-0.13586 z"
       style="opacity:1;fill:#7c7c7c;fill-opacity:1;fill-rule:nonzero;stroke:none;stroke-width:0.07468782;stroke-linecap:round;stroke-miterlimit:4;stroke-dasharray:none;stroke-dashoffset:0;stroke-opacity:1" />
    <path
       inkscape:connector-curvature="0"
       id="path941"
       d="m -435.70347,226.20143 c -0.60878,-0.0953 -1.57241,-0.50971 -2.77778,-1.19472 l -0.15704,-0.0892 -0.003,-0.0901 c -0.002,-0.0495 -5.3e-4,-0.0901 0.002,-0.0901 0.003,0 0.0787,0.0411 0.1687,0.0914 0.60676,0.33894 1.17383,0.61714 1.83725,0.90133 0.54625,0.23401 0.97635,0.3877 1.16823,0.41746 0.12608,0.0196 0.37723,-0.12587 0.73474,-0.42543 0.69931,-0.58597 1.85025,-1.81321 3.06051,-3.26341 1.37242,-1.6445 2.60123,-3.30471 3.29543,-4.45235 0.42438,-0.70157 0.77155,-1.45789 0.88494,-1.92781 0.0479,-0.19852 0.0602,-0.28692 0.0655,-0.47037 0.007,-0.22525 -0.01,-0.34551 -0.0812,-0.59772 -0.006,-0.0219 -0.006,-0.022 0.11125,-0.022 h 0.11747 l 0.005,0.0268 c 0.0404,0.19845 0.0319,0.57096 -0.0194,0.85144 -0.19282,1.05371 -0.9505,2.43771 -2.38003,4.34745 -1.22377,1.63486 -2.71914,3.38439 -3.98155,4.65829 -0.79246,0.79968 -1.3074,1.23653 -1.54996,1.31495 -0.11016,0.0356 -0.32537,0.0416 -0.502,0.014 z"
       style="opacity:1;fill:#7c7c7c;fill-opacity:1;fill-rule:nonzero;stroke:none;stroke-width:0.01475315;stroke-linecap:round;stroke-miterlimit:4;stroke-dasharray:none;stroke-dashoffset:0;stroke-opacity:1" />
    <path
       inkscape:connector-curvature="0"
       id="path945"
       d="m -116.62406,363.18308 c -0.71814,-0.71814 -1.30571,-6.98244 -1.30571,-13.92066 0,-14.48991 -2.30874,-18.81629 -11.00624,-20.62474 l -6.07265,-1.26267 7.11504,-8.22083 c 6.51613,-7.52885 7.5463,-8.05554 12.23854,-6.25721 8.82688,3.38296 11.53411,9.81618 10.68174,25.38315 -0.95313,17.4071 -6.75191,29.80177 -11.65072,24.90296 z"
       style="opacity:1;fill:#7c7c7c;fill-opacity:1;fill-rule:nonzero;stroke:none;stroke-width:2.87125039;stroke-linecap:round;stroke-miterlimit:4;stroke-dasharray:none;stroke-dashoffset:0;stroke-opacity:1" />
    <path
       inkscape:connector-curvature="0"
       id="path951"
       d="m -463.46983,340.17861 c -5.88038,-0.96586 -12.94379,-3.4887 -17.47619,-6.24199 -4.30871,-2.6174 -9.80744,-7.67414 -11.87238,-10.91805 -2.08563,-3.27642 -2.05606,-5.28083 0.10984,-7.44673 2.07144,-2.07145 3.04558,-1.92815 8.70814,1.28101 2.16651,1.22783 6.29771,3.40605 9.18044,4.84049 4.99529,2.48564 5.51169,2.6201 11.00055,2.86422 4.61928,0.20544 6.68837,0.0212 10.45359,-0.93097 5.73719,-1.45082 8.81697,-3.19308 13.40064,-7.58086 l 3.51869,-3.36831 4.05377,3.88918 c 2.22957,2.13905 4.53903,4.36346 5.13213,4.94314 0.9526,0.93106 2.60332,5.65585 2.62149,7.50341 0.009,0.95994 -7.03743,6.50496 -10.43446,8.21064 -1.56436,0.78548 -4.34987,1.83614 -6.19002,2.33481 -4.69919,1.27346 -16.26232,1.5963 -22.20623,0.62001 z"
       style="opacity:1;fill:#7c7c7c;fill-opacity:1;fill-rule:nonzero;stroke:none;stroke-width:0.85074091;stroke-linecap:round;stroke-miterlimit:4;stroke-dasharray:none;stroke-dashoffset:0;stroke-opacity:1" />
    <path
       inkscape:connector-curvature="0"
       id="path971"
       d="m -279.30331,-99.917036 c 0,-1.271364 1.40759,-3.633934 3.12797,-5.250144 2.86879,-2.69509 3.91193,-2.87928 12.58967,-2.22299 5.20394,0.39358 10.46667,1.27799 11.69494,1.96537 2.40086,1.34359 2.92484,1.1469 -15.56699,5.843469 -10.00516,2.54112 -11.84559,2.488962 -11.84559,-0.335705 z"
       style="opacity:1;fill:#7c7c7c;fill-opacity:1;fill-rule:nonzero;stroke:none;stroke-width:1.91416705;stroke-linecap:round;stroke-miterlimit:4;stroke-dasharray:none;stroke-dashoffset:0;stroke-opacity:1" />
  </g>
  <path
     style="opacity:1;fill:#ffffff;fill-opacity:1;fill-rule:nonzero;stroke:none;stroke-width:0.05243423;stroke-linecap:round;stroke-miterlimit:4;stroke-dasharray:none;stroke-dashoffset:0;stroke-opacity:1"
     d="M 13.151482,9.9126233 C 12.532637,9.8563157 11.914557,9.5827118 11.5244,9.1923682 11.248304,8.9161395 11.070684,8.6208611 10.929198,8.2028962 10.833415,7.9199435 10.82132,7.835605 10.806327,7.3461234 10.78067,6.5085118 10.864386,6.0987006 11.191369,5.461235 11.364552,5.1236096 11.808371,4.6622787 12.15129,4.4634379 12.943146,4.0042825 14.000867,3.8878314 14.729625,4.179573 c 0.997838,0.3994618 1.74564,1.7994364 1.675753,3.1372057 -0.09086,1.7392511 -1.378499,2.7664833 -3.253896,2.5958446 z M 14.940847,7.7352576 C 15.072323,7.6117422 15.134109,7.4478484 15.133272,7.2248294 15.132325,6.9728356 15.049299,6.781763 14.873783,6.627658 14.751483,6.5202772 14.727181,6.51258 14.555423,6.5268235 c -0.145081,0.012031 -0.209614,0.037649 -0.293607,0.1165527 -0.154829,0.1454468 -0.235985,0.3438646 -0.236879,0.5791381 -9.26e-4,0.2439052 0.06263,0.4075006 0.194742,0.5012555 0.133115,0.094468 0.202312,0.1103303 0.436987,0.1001696 0.152393,-0.0066 0.218898,-0.027352 0.284181,-0.088682 z"
     id="path2556"
     inkscape:connector-curvature="0" />
  <path
     style="opacity:1;fill:#ffffff;fill-opacity:1;fill-rule:nonzero;stroke:none;stroke-width:0.05243423;stroke-linecap:round;stroke-miterlimit:4;stroke-dasharray:none;stroke-dashoffset:0;stroke-opacity:1"
     d="M 18.996415,7.4029155 C 18.934181,7.2714746 18.860079,7.1777081 18.772784,7.1199392 18.700979,7.0724206 18.632579,7.0083964 18.620786,6.9776631 18.608993,6.9469299 18.546354,6.6550781 18.481589,6.3291038 18.335068,5.591632 18.147243,5.0139669 17.856246,4.4058359 l -0.225214,-0.4706555 0.2088,-0.010342 c 0.606493,-0.030039 1.198045,0.6184615 1.442232,1.5810726 0.100142,0.3947729 0.16373,1.0714823 0.131762,1.4022307 -0.02305,0.2384999 -0.19382,0.6491498 -0.281776,0.6775902 -0.02426,0.00785 -0.08257,-0.070751 -0.135635,-0.1828164 z"
     id="path2558"
     inkscape:connector-curvature="0" />
  <path
     style="opacity:1;fill:#ffffff;fill-opacity:1;fill-rule:nonzero;stroke:none;stroke-width:0.05243423;stroke-linecap:round;stroke-miterlimit:4;stroke-dasharray:none;stroke-dashoffset:0;stroke-opacity:1"
     d="m 18.584147,9.9752336 c -0.04009,-0.3208952 0.02,-0.540686 0.148254,-0.5422571 0.05835,-7.149e-4 0.05794,0.5064686 -5.12e-4,0.6210255 -0.07568,0.148336 -0.122485,0.123384 -0.147742,-0.078768 z"
     id="path2562"
     inkscape:connector-curvature="0" />
  <path
     style="opacity:1;fill:#ffffff;fill-opacity:1;fill-rule:nonzero;stroke:none;stroke-width:0.05243423;stroke-linecap:round;stroke-miterlimit:4;stroke-dasharray:none;stroke-dashoffset:0;stroke-opacity:1"
     d="m 18.170535,10.105808 c -0.01283,-0.06839 -0.01262,-0.2100818 4.76e-4,-0.3148689 0.01877,-0.150248 0.03938,-0.1963148 0.09751,-0.2179259 0.141364,-0.052563 0.160408,-0.013223 0.160408,0.3313642 v 0.3257786 h -0.117531 c -0.107393,0 -0.119543,-0.01073 -0.140858,-0.124348 z"
     id="path2564"
     inkscape:connector-curvature="0" />
  <path
     style="opacity:1;fill:#ffffff;fill-opacity:1;fill-rule:nonzero;stroke:none;stroke-width:0.05243423;stroke-linecap:round;stroke-miterlimit:4;stroke-dasharray:none;stroke-dashoffset:0;stroke-opacity:1"
     d="m 16.712113,14.550129 c -0.467411,-0.159797 -2.016125,-0.829292 -3.364257,-1.454337 l -0.416197,-0.192965 -0.0041,-0.21244 c -0.0072,-0.372775 -0.201229,-0.46983 -0.661022,-0.330616 -0.249644,0.07559 -0.416606,0.05653 -0.556128,-0.06349 l -0.09432,-0.08113 0.116453,-0.07082 c 0.590416,-0.359053 6.85605,-1.883023 8.114083,-1.973562 l 0.290513,-0.02091 -0.05258,0.0835 c -0.02892,0.04592 -0.306004,0.473682 -0.615744,0.950574 -1.413145,2.175748 -2.329277,3.453297 -2.474056,3.450077 -0.02193,-4.89e-4 -0.149126,-0.03824 -0.282655,-0.08389 z"
     id="path2566"
     inkscape:connector-curvature="0" />
  <path
     style="opacity:1;fill:#ffffff;fill-opacity:1;fill-rule:nonzero;stroke:none;stroke-width:0.05243423;stroke-linecap:round;stroke-miterlimit:4;stroke-dasharray:none;stroke-dashoffset:0;stroke-opacity:1"
     d="m 20.505818,15.557583 c -0.126241,-0.09991 -0.711517,-0.52822 -1.300614,-0.951797 -0.589098,-0.423578 -1.107071,-0.797828 -1.151053,-0.831667 l -0.07997,-0.06153 0.918094,-1.385717 c 1.097597,-1.656649 1.310392,-1.966487 1.361958,-1.98306 0.04824,-0.01551 0.150649,0.507163 0.29032,1.48176 0.315692,2.202833 0.411218,3.938215 0.215583,3.916425 -0.01363,-0.0015 -0.12808,-0.08451 -0.254321,-0.184418 z"
     id="path2568"
     inkscape:connector-curvature="0" />
  <path
     style="opacity:1;fill:#ffffff;fill-opacity:1;fill-rule:nonzero;stroke:none;stroke-width:0.05243423;stroke-linecap:round;stroke-miterlimit:4;stroke-dasharray:none;stroke-dashoffset:0;stroke-opacity:1"
     d="m 13.447561,18.042515 c 0.215622,-0.415785 2.422368,-3.581026 2.496623,-3.581026 0.02383,0 0.250626,0.07023 0.503999,0.156074 0.453797,0.153743 0.568802,0.176652 0.67747,0.134952 0.03027,-0.01162 0.205167,-0.206709 0.388653,-0.433538 0.183487,-0.226829 0.358988,-0.412134 0.390004,-0.411787 0.09949,0.0011 2.506168,1.733977 2.685587,1.93369 0.06178,0.06876 0.05865,0.07126 -0.225439,0.179746 -0.611962,0.233688 -4.050637,1.327254 -5.334474,1.696467 -0.5621,0.161651 -1.552277,0.4208 -1.607829,0.4208 -0.01323,0 -0.0018,-0.04292 0.02541,-0.09538 z"
     id="path2570"
     inkscape:connector-curvature="0" />
  <path
     style="opacity:1;fill:#ffffff;fill-opacity:1;fill-rule:nonzero;stroke:none;stroke-width:0.05243423;stroke-linecap:round;stroke-miterlimit:4;stroke-dasharray:none;stroke-dashoffset:0;stroke-opacity:1"
     d="M 13.025312,17.782392 C 12.910922,17.504689 12.66665,16.76295 12.500284,16.18813 12.324485,15.580717 11.874566,13.73124 11.851624,13.521694 l -0.02125,-0.19411 0.238495,-0.05931 c 0.131173,-0.03262 0.340611,-0.106064 0.465418,-0.163213 l 0.226923,-0.103908 1.469688,0.669564 c 0.808329,0.36826 1.475048,0.68564 1.481597,0.705289 0.0149,0.04469 -0.16841,0.321239 -1.079684,1.628874 -1.187461,1.703948 -1.421654,2.028527 -1.463804,2.028748 -0.02206,1.04e-4 -0.08673,-0.112942 -0.143694,-0.251241 z"
     id="path2572"
     inkscape:connector-curvature="0" />
  <path
     style="opacity:1;fill:#ffffff;fill-opacity:1;fill-rule:nonzero;stroke:none;stroke-width:0.05243423;stroke-linecap:round;stroke-miterlimit:4;stroke-dasharray:none;stroke-dashoffset:0;stroke-opacity:1"
     d="m 14.56373,7.2050123 c -0.111836,-0.1596678 -0.04249,-0.3391134 0.131049,-0.3391134 0.06228,0 0.131962,0.018729 0.154853,0.04162 0.05112,0.051115 0.0542,0.2169035 0.0057,0.307491 -0.05075,0.094831 -0.222314,0.08895 -0.291619,-0.01 z"
     id="path2574"
     inkscape:connector-curvature="0" />
</svg>
